HIERARCHY
ROOT Hips
{
	OFFSET 0.000000 0.000000 0.000000
	CHANNELS 6 Xposition Yposition Zposition Xrotation Yrotation Zrotation
	JOINT LeftUpLeg_virtual
	{
		OFFSET 0.000000 0.000000 0.000000
		CHANNELS 3 Xrotation Yrotation Zrotation
		JOINT LeftUpLeg
		{
			OFFSET 13.026900 -6.336304 -1.092800
			CHANNELS 3 Xrotation Yrotation Zrotation
			JOINT LeftLeg
			{
				OFFSET 0.524474 -46.096886 9.782700
				CHANNELS 3 Xrotation Yrotation Zrotation
				JOINT LeftFoot
				{
					OFFSET -0.524474 -53.427422 -12.948200
					CHANNELS 3 Xrotation Yrotation Zrotation
					JOINT LeftToeBase
					{
						OFFSET 0.192200 -14.009700 16.364100
						CHANNELS 3 Xrotation Yrotation Zrotation
						JOINT LeftToe_End
						{
							OFFSET -1.784700 -0.561700 9.474800
							CHANNELS 3 Xrotation Yrotation Zrotation
							End Site
							{
								OFFSET 0 0 0
							}
						}
					}
				}
			}
		}
	}
	JOINT RightUpLeg_virtual
	{
		OFFSET 0.000000 0.000000 0.000000
		CHANNELS 3 Xrotation Yrotation Zrotation
		JOINT RightUpLeg
		{
			OFFSET -12.883000 -6.336304 -1.092800
			CHANNELS 3 Xrotation Yrotation Zrotation
			JOINT RightLeg
			{
				OFFSET -0.524587 -46.096825 9.782800
				CHANNELS 3 Xrotation Yrotation Zrotation
				JOINT RightFoot
				{
					OFFSET 0.524587 -53.427383 -12.948300
					CHANNELS 3 Xrotation Yrotation Zrotation
					JOINT RightToeBase
					{
						OFFSET -0.192200 -14.009700 16.364100
						CHANNELS 3 Xrotation Yrotation Zrotation
						JOINT RightToe_End
						{
							OFFSET 1.784700 -0.561700 9.474800
							CHANNELS 3 Xrotation Yrotation Zrotation
							End Site
							{
								OFFSET 0 0 0
							}
						}
					}
				}
			}
		}
	}
	JOINT Spine_virtual
	{
		OFFSET 0.000000 0.000000 0.000000
		CHANNELS 3 Xrotation Yrotation Zrotation
		JOINT Spine
		{
			OFFSET 0.072000 7.257294 -0.789700
			CHANNELS 3 Xrotation Yrotation Zrotation
			JOINT Spine1
			{
				OFFSET 0.000000 12.508769 -0.658067
				CHANNELS 3 Xrotation Yrotation Zrotation
				JOINT Spine1_split
				{
					OFFSET 0.000000 12.508769 -0.658067
					CHANNELS 3 Xrotation Yrotation Zrotation
					JOINT Spine2
					{
						OFFSET 0.000000 12.508769 -0.658067
						CHANNELS 3 Xrotation Yrotation Zrotation
						JOINT Neck_virtual
						{
							OFFSET 0.000000 0.000000 0.000000
							CHANNELS 3 Xrotation Yrotation Zrotation
							JOINT Neck
							{
								OFFSET 0.000000 14.033295 7.520400
								CHANNELS 3 Xrotation Yrotation Zrotation
								JOINT Head
								{
									OFFSET 0.000000 8.198502 5.703100
									CHANNELS 3 Xrotation Yrotation Zrotation
									JOINT HeadTop_End
									{
										OFFSET 0.000000 17.760803 13.332701
										CHANNELS 3 Xrotation Yrotation Zrotation
										End Site
										{
											OFFSET 0 0 0
										}
									}
								}
							}
						}
						JOINT LeftShoulder_virtual
						{
							OFFSET 0.000000 0.000000 0.000000
							CHANNELS 3 Xrotation Yrotation Zrotation
							JOINT LeftShoulder
							{
								OFFSET 6.292450 5.785301 -0.669000
								CHANNELS 3 Xrotation Yrotation Zrotation
								JOINT LeftShoulder_split
								{
									OFFSET 6.292450 5.785301 -0.669000
									CHANNELS 3 Xrotation Yrotation Zrotation
									JOINT LeftArm
									{
										OFFSET 13.907140 -6.093903 1.965100
										CHANNELS 3 Xrotation Yrotation Zrotation
										JOINT LeftForeArm
										{
											OFFSET 34.140198 0.000000 0.000000
											CHANNELS 3 Xrotation Yrotation Zrotation
											JOINT LeftHand
											{
												OFFSET 40.960209 0.000000 0.000000
												CHANNELS 3 Xrotation Yrotation Zrotation
												End Site
												{
													OFFSET 0 0 0
												}
											}
										}
									}
								}
							}
						}
						JOINT RightShoulder_virtual
						{
							OFFSET 0.000000 0.000000 0.000000
							CHANNELS 3 Xrotation Yrotation Zrotation
							JOINT RightShoulder
							{
								OFFSET -6.292450 5.785301 -0.669000
								CHANNELS 3 Xrotation Yrotation Zrotation
								JOINT RightShoulder_split
								{
									OFFSET -6.292450 5.785301 -0.669000
									CHANNELS 3 Xrotation Yrotation Zrotation
									JOINT RightArm
									{
										OFFSET -13.907140 -6.093903 1.965100
										CHANNELS 3 Xrotation Yrotation Zrotation
										JOINT RightForeArm
										{
											OFFSET -34.140198 0.000000 0.000000
											CHANNELS 3 Xrotation Yrotation Zrotation
											JOINT RightHand
											{
												OFFSET -40.960209 0.000000 0.000000
												CHANNELS 3 Xrotation Yrotation Zrotation
												End Site
												{
													OFFSET 0 0 0
												}
											}
										}
									}
								}
							}
						}
					}
				}
			}
		}
	}
}
MOTION
Frames: 4
Frame Time: 0.03333333
12.203462 115.057907 -3.606693 0.000000 0.000000 0.000000 -0.929199 -21.177973 -1.694660 -7.688828 5.417020 -0.919722 13.574908 9.557267 1.348327 -6.724008 18.644070 -1.153128 -2.005876 0.014955 -1.143590 0.000000 0.000000 0.000000 0.008997 -21.230890 -1.760981 -10.696639 -7.333182 -12.261579 13.898771 4.189267 2.257010 -5.729850 -4.616671 9.227936 -6.554383 0.211139 0.872411 0.000000 0.000000 0.000000 -0.252343 -21.207886 -2.621206 3.712722 1.360456 -1.494311 0.547577 -0.050679 0.126103 1.117092 0.158909 0.233619 0.000000 0.000000 0.000000 1.411197 0.389874 -0.339593 1.198623 -1.041870 2.280487 13.436054 10.145401 5.771645 0.000000 0.000000 0.000000 0.891654 0.454498 -0.169602 2.250266 -2.963359 -11.621624 -0.331502 -0.991315 -1.987253 -7.113423 -18.982989 -56.070399 0.387212 -14.052107 0.399532 0.000000 0.000000 0.000000 0.956529 0.420716 -0.179825 2.423031 -2.565615 16.866589 -0.714815 2.921101 -2.861210 7.211009 2.695869 65.490552 1.746981 20.422686 1.490425 0.000000 0.000000 0.000000 
12.941676 115.033493 -3.215145 0.000000 0.000000 0.000000 -0.873369 -22.191010 -1.887429 -7.717743 5.647190 -1.072828 13.485126 9.535551 1.361816 -6.758779 19.353075 -0.920262 -2.042701 0.023794 -1.111981 0.000000 0.000000 0.000000 0.015388 -22.168689 -1.953484 -10.878323 -7.340480 -12.203192 13.811061 4.381899 2.231716 -5.898914 -4.618959 9.456864 -6.384793 0.197557 0.809396 0.000000 0.000000 0.000000 -0.245390 -22.119402 -2.826347 3.463156 0.880906 -1.619418 0.489459 -0.140232 0.105163 1.173171 0.188835 0.227383 0.000000 0.000000 0.000000 1.380385 0.292792 -0.361010 1.195991 -1.145843 2.390246 13.720968 11.063384 6.096136 0.000000 0.000000 0.000000 0.844357 0.372265 -0.186520 2.198560 -3.180544 -11.494542 -0.421349 -0.934885 -1.998372 -7.400107 -20.634399 -56.344129 0.398118 -14.577623 0.416638 0.000000 0.000000 0.000000 0.920697 0.331846 -0.231432 2.486093 -3.124159 17.199805 -0.756028 2.842305 -2.913165 6.822693 3.343672 66.036618 1.769448 20.936169 1.495905 0.000000 0.000000 0.000000 
13.624432 115.027412 -2.858570 0.000000 0.000000 0.000000 -0.793968 -23.151874 -2.079456 -7.770202 5.900339 -1.173890 13.387604 9.530148 1.388970 -6.762236 20.017906 -0.690329 -2.094425 0.032585 -1.083490 0.000000 0.000000 0.000000 0.029464 -23.062583 -2.149810 -11.066722 -7.383670 -12.098993 13.680609 4.459325 2.199963 -6.021678 -4.630505 9.601022 -6.172018 0.185169 0.743336 0.000000 0.000000 0.000000 -0.209607 -23.000365 -3.018698 3.237220 0.374664 -1.780380 0.432843 -0.224310 0.068198 1.239001 0.237146 0.222684 0.000000 0.000000 0.000000 1.345322 0.197551 -0.394030 1.201314 -1.247036 2.503818 14.003355 11.906018 6.512607 0.000000 0.000000 0.000000 0.803102 0.296025 -0.211951 2.134063 -3.448314 -11.296056 -0.503298 -0.881713 -2.001507 -7.548302 -22.379231 -56.637025 0.430504 -15.459211 0.446326 0.000000 0.000000 0.000000 0.899134 0.246503 -0.298604 2.549579 -3.712218 17.577709 -0.815508 2.730174 -2.928449 6.308258 4.090054 66.510456 1.798648 21.457649 1.499473 0.000000 0.000000 0.000000 
14.234937 115.044487 -2.537701 0.000000 0.000000 0.000000 -0.671254 -24.010266 -2.254769 -7.863911 6.145155 -1.234385 13.281344 9.528133 1.427700 -6.707529 20.615014 -0.470147 -2.169915 0.041385 -1.058427 0.000000 0.000000 0.000000 0.092844 -23.874043 -2.331173 -11.232150 -7.420502 -11.967809 13.446774 4.433791 2.155287 -6.042766 -4.636297 9.725621 -5.995963 0.172827 0.684082 0.000000 0.000000 0.000000 -0.122628 -23.805588 -3.183415 3.023408 -0.155091 -1.997199 0.374573 -0.305369 0.010759 1.272128 0.293994 0.240588 0.000000 0.000000 0.000000 1.300106 0.102751 -0.443982 1.212975 -1.346754 2.643828 14.297034 12.660920 7.014185 0.000000 0.000000 0.000000 0.763196 0.224667 -0.250878 2.056847 -3.758716 -11.015591 -0.571469 -0.827888 -1.986416 -7.539768 -24.182391 -56.977155 0.492371 -16.757169 0.486683 0.000000 0.000000 0.000000 0.885692 0.163358 -0.385484 2.616437 -4.330299 17.985401 -0.889017 2.581476 -2.914541 5.740955 4.898160 66.893807 1.829822 21.956306 1.510908 0.000000 0.000000 0.000000 
